<?xml version="1.0" standalone="no"?>
<!DOCTYPE svg PUBLIC "-//W3C//DTD SVG 20010904//EN"
 "http://www.w3.org/TR/2001/REC-SVG-20010904/DTD/svg10.dtd">
<svg version="1.0" xmlns="http://www.w3.org/2000/svg"
 width="1920.000000pt" height="1920.000000pt" viewBox="0 0 1920.000000 1920.000000"
 preserveAspectRatio="xMidYMid meet">

<g transform="translate(0.000000,1920.000000) scale(0.100000,-0.100000)"
fill="#000000" stroke="none">
<path d="M10590 15314 c-59 -22 -92 -44 -140 -93 -134 -137 -192 -343 -191
-682 0 -93 -4 -169 -8 -169 -5 0 -21 18 -35 41 -39 58 -172 195 -225 231 -238
161 -485 173 -656 34 -23 -19 -57 -63 -76 -98 -32 -59 -34 -69 -34 -158 0 -87
3 -101 33 -165 45 -95 98 -163 190 -241 310 -265 716 -318 1207 -158 127 41
340 141 438 205 66 43 67 45 67 87 0 91 44 143 137 162 85 18 233 -17 340 -80
l34 -20 15 35 c37 91 49 160 49 295 -1 151 -15 221 -67 327 -55 111 -138 164
-205 129 -81 -41 -154 -179 -197 -368 -4 -16 -10 -28 -15 -28 -5 0 -24 44 -42
98 -71 215 -171 389 -285 499 -85 82 -158 117 -249 120 -38 1 -77 0 -85 -3z"/>
<path d="M13315 14610 c-66 -22 -122 -40 -124 -40 -2 0 4 9 14 20 27 29 4 24
-43 -10 -32 -23 -44 -41 -57 -82 -8 -28 -15 -58 -15 -65 0 -22 48 -15 113 18
159 81 277 122 277 97 0 -30 -86 -140 -125 -160 -65 -33 -85 -57 -85 -100 0
-33 -10 -52 -70 -126 -71 -88 -85 -122 -51 -122 21 0 67 49 124 134 l38 56
166 -112 c92 -61 175 -113 185 -116 15 -4 18 2 18 35 0 49 -15 64 -177 171
-67 45 -124 86 -128 91 -16 27 34 65 177 137 81 41 156 74 167 74 22 0 91 73
91 96 0 12 -44 -7 -166 -71 -91 -47 -168 -84 -171 -81 -2 2 11 28 31 58 40 58
44 82 20 116 -22 32 -69 28 -209 -18z"/>
<path d="M14273 14631 c-33 -21 -166 -175 -228 -266 -20 -28 -46 -78 -60 -111
-19 -47 -33 -66 -70 -91 -49 -35 -83 -41 -103 -21 -21 21 -13 46 33 98 24 28
52 64 61 81 14 28 14 33 1 46 -24 24 -79 -8 -122 -72 -44 -63 -54 -103 -43
-164 19 -102 90 -108 178 -16 l35 36 5 -42 c3 -23 10 -44 16 -46 7 -2 29 19
49 47 l38 51 28 -49 c33 -58 74 -81 111 -62 12 7 44 33 71 58 42 41 47 44 47
24 0 -31 25 -78 45 -86 36 -13 83 -5 126 23 44 28 182 165 190 188 2 7 25 17
51 22 35 6 46 5 40 -3 -4 -6 -20 -31 -36 -54 -39 -57 -47 -129 -17 -156 27
-24 53 -14 120 49 l48 45 6 -36 c8 -49 33 -74 73 -74 25 0 45 11 88 50 l55 51
3 -42 c2 -23 8 -44 14 -46 7 -2 29 19 49 47 l38 51 28 -49 c33 -58 74 -81 111
-62 12 7 44 32 69 57 l46 44 7 -32 c12 -62 56 -85 109 -58 38 19 107 92 107
112 0 18 -1 18 -22 3 -54 -39 -86 -50 -113 -38 -36 17 -31 44 20 102 62 70 81
108 63 127 -20 19 -60 3 -99 -39 -34 -36 -69 -99 -69 -122 0 -22 -83 -86 -112
-86 -14 0 -32 8 -41 18 -16 18 -14 20 32 50 71 46 111 95 111 137 0 102 -50
86 -202 -63 -135 -132 -130 -94 10 74 184 222 226 282 212 304 -17 27 -79 -18
-166 -122 -106 -127 -149 -191 -179 -264 -19 -47 -33 -66 -70 -91 -49 -35 -83
-41 -103 -21 -21 21 -13 46 33 98 24 28 52 64 61 81 14 28 14 33 1 46 -13 13
-19 13 -49 -1 -40 -19 -72 -58 -108 -130 -35 -71 -112 -120 -126 -81 -10 26 4
58 46 109 32 38 40 56 38 80 l-3 31 -72 -3 c-68 -3 -71 -2 -66 18 5 19 3 20
-20 9 -27 -12 -62 -54 -76 -93 -7 -17 -5 -30 6 -46 14 -20 13 -24 -30 -63 -48
-46 -122 -87 -154 -87 -23 0 -37 14 -47 47 -6 19 0 26 52 52 76 38 121 77 138
117 17 40 10 62 -23 70 -63 16 -183 -69 -229 -162 -45 -92 -128 -140 -167 -96
-16 18 -14 20 32 50 71 46 111 95 111 137 0 102 -50 86 -202 -63 -130 -127
-133 -96 -6 54 122 145 240 304 235 318 -6 18 -30 17 -64 -3z m257 -296 c0
-33 -110 -129 -127 -111 -10 10 48 84 81 106 37 24 46 25 46 5z m-294 -59
c-24 -37 -85 -96 -99 -96 -7 0 -19 5 -27 10 -12 8 -10 14 15 41 48 50 107 91
118 80 7 -7 4 -19 -7 -35z m1152 2 c-25 -37 -88 -98 -101 -98 -7 0 -19 5 -27
10 -12 8 -10 14 15 41 48 50 107 91 118 80 7 -7 5 -18 -5 -33z"/>
<path d="M12382 14568 c-33 -120 -169 -653 -203 -798 -17 -74 -33 -176 -36
-226 -6 -109 -12 -104 132 -111 146 -8 556 26 648 53 61 18 -55 59 -329 114
-81 17 -150 33 -153 35 -2 3 5 15 16 28 33 36 97 137 90 143 -3 3 -42 -13 -87
-36 -45 -22 -84 -39 -87 -37 -2 3 1 51 6 108 34 334 52 799 33 799 -5 0 -18
-33 -30 -72z"/>
<path d="M13945 14510 c-29 -11 -52 -57 -39 -78 17 -26 32 -25 59 2 43 43 29
94 -20 76z"/>
<path d="M15095 14510 c-29 -11 -52 -57 -39 -78 16 -24 28 -25 57 -2 18 14 27
31 27 50 0 31 -15 41 -45 30z"/>
<path d="M15675 14510 c-29 -11 -52 -57 -39 -78 27 -42 67 -14 62 45 -3 36 -5
40 -23 33z"/>
<path d="M11565 14059 c-101 -53 -150 -140 -143 -251 19 -257 364 -327 481
-97 48 95 31 216 -41 293 -68 73 -212 100 -297 55z"/>
<path d="M12570 13385 c-25 -7 -62 -16 -82 -20 -22 -3 -38 -12 -38 -20 0 -7
15 -73 34 -147 204 -808 804 -1409 1406 -1409 120 0 184 9 260 36 231 82 320
308 210 531 -17 35 -50 82 -74 106 -34 34 -44 52 -49 87 -7 58 -60 112 -152
155 -38 18 -219 83 -401 144 -448 150 -609 221 -823 360 -71 46 -182 133 -229
179 -7 7 -14 13 -15 12 -1 -1 -22 -7 -47 -14z"/>
<path d="M11889 10140 c-106 -105 -177 -149 -252 -157 l-56 -6 -76 -166 c-97
-211 -161 -326 -263 -472 -91 -131 -195 -246 -285 -317 -110 -87 -321 -199
-532 -282 -248 -99 -802 -262 -928 -274 -23 -3 -89 -14 -145 -25 -57 -12 -161
-28 -230 -37 -116 -15 -129 -19 -147 -43 -11 -14 -51 -62 -89 -105 l-70 -79
-30 35 c-26 29 -36 34 -59 29 l-28 -6 87 -170 c48 -93 92 -177 99 -185 7 -8
47 -71 90 -140 133 -216 368 -553 421 -606 10 -10 57 -66 103 -124 273 -338
623 -676 906 -873 l89 -62 28 -150 c15 -83 27 -159 28 -170 0 -11 4 -26 9 -34
7 -11 12 -11 31 2 54 38 126 -38 227 -237 30 -60 58 -105 62 -100 3 5 24 35
45 66 63 95 126 121 176 73 l27 -26 6 107 c4 59 7 131 7 161 l0 53 43 -7 c23
-5 155 -8 293 -8 l250 0 39 -62 c35 -55 43 -63 80 -68 22 -4 67 -20 101 -37
75 -36 123 -74 266 -215 26 -26 50 -44 52 -42 3 2 0 25 -5 49 -13 58 -8 205 8
221 7 7 23 13 35 14 29 3 28 8 -28 124 -46 96 -49 121 -16 121 61 0 297 80
522 177 215 93 494 257 675 397 75 58 258 216 275 237 3 4 53 58 112 120 177
190 309 380 479 692 60 110 139 285 139 309 0 6 18 60 40 118 47 125 125 398
141 495 l12 70 -41 58 c-37 53 -124 267 -179 440 -10 31 -21 57 -24 57 -4 0
-13 -15 -20 -32 -18 -44 -87 -108 -117 -108 -13 0 -32 5 -43 11 -26 13 -96
121 -104 160 -9 42 -21 28 -35 -43 -15 -77 -83 -284 -111 -340 -30 -59 -74
-117 -117 -154 -51 -43 -127 -54 -208 -28 -47 15 -71 31 -134 93 -104 103
-159 185 -277 415 -71 139 -213 505 -252 654 -7 23 -15 42 -19 42 -4 0 -21
-26 -39 -58 -41 -75 -97 -139 -152 -174 -39 -24 -55 -28 -116 -28 -93 0 -142
29 -208 126 -66 96 -147 344 -173 527 -8 58 -17 65 -39 29 -63 -99 -146 -138
-208 -97 -21 14 -46 69 -59 135 -2 10 -33 -15 -89 -70z"/>
<path d="M10163 3228 c3 -7 17 -48 32 -90 15 -45 32 -78 40 -78 13 0 80 168
71 177 -11 11 -27 -12 -41 -60 -25 -86 -31 -87 -56 -8 -14 43 -28 71 -37 71
-7 0 -11 -6 -9 -12z"/>
<path d="M10593 3205 c-6 -14 -7 -27 -2 -31 5 -3 9 -28 9 -55 0 -35 4 -51 15
-56 9 -3 19 -2 23 2 4 4 1 10 -5 12 -8 3 -13 23 -13 53 0 29 5 50 13 53 10 4
10 6 0 6 -7 1 -13 10 -13 21 0 27 -13 25 -27 -5z"/>
<path d="M10350 3187 c-20 -10 -26 -21 -28 -54 -3 -46 16 -73 52 -73 26 0 64
25 54 36 -4 4 -14 1 -22 -5 -20 -17 -60 -10 -64 12 -3 14 4 17 42 17 42 0 46
2 46 24 0 14 -10 32 -22 40 -27 19 -26 19 -58 3z m48 -19 c20 -20 14 -28 -23
-28 -19 0 -35 4 -35 8 0 12 22 32 35 32 6 0 16 -5 23 -12z"/>
<path d="M10480 3180 c-41 -41 -16 -120 38 -120 21 0 52 24 52 41 0 15 -18 10
-28 -7 -11 -20 -41 -15 -56 8 -14 23 4 72 28 76 11 2 23 -3 28 -12 10 -17 28
-22 28 -7 0 16 -31 41 -51 41 -10 0 -28 -9 -39 -20z"/>
<path d="M10690 3187 c-28 -14 -40 -52 -28 -87 11 -29 25 -40 54 -40 24 0 62
25 52 36 -4 4 -14 1 -22 -5 -20 -17 -60 -10 -64 12 -3 14 4 17 42 17 42 0 46
2 46 24 0 14 -10 32 -22 40 -27 19 -26 19 -58 3z m48 -19 c20 -20 14 -28 -23
-28 -19 0 -35 4 -35 8 0 12 22 32 35 32 6 0 16 -5 23 -12z"/>
<path d="M10830 3187 c-28 -14 -40 -52 -28 -87 11 -29 25 -40 54 -40 24 0 62
25 52 36 -4 4 -14 1 -22 -5 -20 -17 -60 -10 -64 12 -3 14 4 17 42 17 42 0 46
2 46 24 0 14 -10 32 -22 40 -27 19 -26 19 -58 3z m48 -19 c20 -20 14 -28 -23
-28 -19 0 -35 4 -35 8 0 12 22 32 35 32 6 0 16 -5 23 -12z"/>
<path d="M11269 3181 c-27 -21 -32 -79 -9 -106 17 -20 69 -16 84 7 14 23 -1
36 -17 14 -7 -10 -22 -16 -33 -14 -15 2 -19 12 -19 42 0 47 28 72 49 44 16
-22 26 -23 26 -3 0 14 -29 35 -48 35 -5 0 -20 -8 -33 -19z"/>
<path d="M11390 3180 c-26 -26 -26 -81 -2 -103 43 -39 102 -6 102 55 0 33 -31
68 -60 68 -11 0 -29 -9 -40 -20z m72 -25 c22 -49 -25 -98 -60 -63 -26 26 -6
88 29 88 11 0 24 -11 31 -25z"/>
<path d="M11565 3190 c-11 -4 -26 -5 -32 -3 -10 4 -13 -12 -13 -61 0 -37 4
-66 10 -66 6 0 10 19 10 43 0 50 19 83 44 74 12 -5 16 -20 16 -62 0 -30 5 -55
10 -55 6 0 10 22 10 49 0 52 16 76 44 65 12 -5 16 -19 16 -60 0 -30 5 -54 10
-54 17 0 12 107 -6 124 -18 19 -20 19 -45 6 -12 -7 -26 -7 -36 -2 -10 5 -27 6
-38 2z"/>
<path d="M10945 3185 c6 -2 23 -6 38 -9 l28 -7 -36 -43 c-19 -24 -35 -48 -35
-55 0 -7 20 -11 55 -11 64 0 75 17 14 22 l-40 3 35 42 c20 22 36 46 36 52 0 7
-21 11 -52 10 -29 0 -48 -2 -43 -4z"/>
<path d="M11084 3123 c24 -71 24 -93 0 -93 -8 0 -14 -4 -14 -10 0 -5 9 -10 19
-10 15 0 27 18 50 80 33 85 36 100 22 100 -5 0 -15 -17 -21 -37 -18 -57 -26
-59 -40 -9 -7 26 -18 46 -26 46 -10 0 -7 -17 10 -67z"/>
<path d="M11190 3075 c0 -8 5 -15 10 -15 6 0 10 7 10 15 0 8 -4 15 -10 15 -5
0 -10 -7 -10 -15z"/>
</g>
</svg>
