<?xml version="1.0" standalone="no"?>
<!DOCTYPE svg PUBLIC "-//W3C//DTD SVG 20010904//EN"
 "http://www.w3.org/TR/2001/REC-SVG-20010904/DTD/svg10.dtd">
<svg version="1.0" xmlns="http://www.w3.org/2000/svg"
 width="521.000000pt" height="416.000000pt" viewBox="0 0 521.000000 416.000000"
 preserveAspectRatio="xMidYMid meet">

<g transform="translate(0.000000,416.000000) scale(0.100000,-0.100000)"
fill="#000000" stroke="none">
<path d="M2735 3239 c-217 -23 -541 -173 -684 -317 -55 -55 -73 -77 -228 -284
-69 -93 -195 -213 -277 -265 -21 -14 -78 -39 -125 -55 -83 -29 -90 -30 -200
-23 -105 6 -122 10 -216 50 -136 58 -229 112 -294 169 -30 27 -73 94 -67 105
13 21 -88 280 -200 509 -51 106 -56 113 -82 110 -27 -3 -41 -29 -57 -112 l-6
-29 -17 34 c-14 27 -23 34 -47 34 -29 0 -30 -2 -33 -47 -2 -26 4 -71 12 -99 9
-29 15 -54 13 -55 -1 -2 -31 15 -66 37 -69 43 -109 48 -121 14 -5 -14 8 -59
39 -140 82 -209 153 -324 221 -360 14 -7 32 -26 40 -41 8 -16 42 -74 75 -129
33 -55 69 -117 79 -138 24 -47 107 -143 166 -192 25 -20 84 -74 131 -119 180
-169 282 -235 464 -301 49 -18 115 -45 146 -58 121 -55 354 -112 609 -152 l35
-5 2 -108 c2 -117 35 -330 80 -512 23 -95 27 -132 25 -216 -3 -89 1 -112 25
-185 25 -78 51 -119 73 -119 6 0 19 9 29 19 19 19 19 20 -6 82 -14 34 -28 89
-31 121 -5 59 -5 59 19 49 99 -39 253 -107 297 -132 57 -32 85 -32 102 1 8 15
6 24 -11 41 -24 24 -174 97 -310 150 l-86 34 -16 65 c-64 261 -107 518 -107
640 l0 61 33 -6 c98 -18 251 -28 490 -32 260 -5 267 -5 267 -25 0 -22 84 -165
200 -338 180 -269 270 -431 270 -486 0 -43 28 -89 93 -151 72 -70 147 -116
171 -107 9 3 21 15 27 25 12 23 -4 40 -104 112 -37 27 -71 56 -76 65 -9 16 -3
17 83 6 52 -7 136 -15 189 -19 89 -7 96 -6 116 14 17 17 19 26 11 41 -12 22
-24 25 -230 45 -85 9 -165 18 -178 22 -17 4 -34 27 -62 87 -39 82 -103 186
-256 418 -47 70 -107 164 -134 210 l-49 83 77 17 c42 9 104 25 137 36 69 21
315 177 358 226 63 71 116 172 148 281 31 104 33 119 33 271 l1 161 480 7
c263 4 487 12 496 17 38 20 29 72 -16 89 -23 9 -541 79 -735 100 -52 5 -132
15 -177 21 l-82 12 -12 56 c-53 259 -221 492 -407 561 -125 48 -198 60 -341
59 -75 -1 -172 -5 -216 -10z m431 -99 c43 -11 103 -32 133 -47 74 -36 176
-143 227 -240 43 -79 84 -197 84 -237 l0 -23 -149 29 c-166 32 -201 29 -201
-16 0 -14 8 -29 18 -34 9 -5 94 -24 189 -42 l171 -32 4 -32 4 -32 -223 3
c-125 1 -234 -2 -248 -7 -31 -12 -34 -54 -5 -70 11 -6 111 -11 245 -13 151 -2
228 -6 236 -14 8 -8 10 -59 7 -170 -6 -202 -34 -309 -110 -423 -46 -70 -59
-81 -186 -164 -148 -97 -221 -126 -355 -145 -98 -14 -514 -14 -622 -1 -44 5
-120 14 -170 20 -400 49 -628 97 -784 167 -31 13 -97 40 -147 58 -50 18 -115
45 -145 60 -53 27 -209 141 -239 175 -8 10 -64 61 -125 115 -121 108 -186 180
-210 232 -9 19 -40 74 -69 121 -63 104 -88 151 -115 215 -20 47 -22 49 -58 45
l-38 -3 -57 114 c-32 63 -58 121 -58 129 0 9 29 -13 65 -47 36 -35 71 -61 78
-59 6 3 19 16 27 31 13 23 13 33 -3 92 -16 60 -16 68 -3 79 9 6 23 29 32 51
l17 40 23 -50 c86 -187 137 -322 136 -364 -1 -34 6 -56 30 -95 79 -126 183
-199 451 -312 66 -28 94 -33 195 -39 117 -7 118 -7 224 28 129 43 155 60 279
170 69 61 130 130 215 243 147 195 189 238 300 310 88 58 266 139 367 169 132
38 439 46 563 15z m809 -690 c99 -11 187 -22 195 -24 8 -2 -85 -4 -206 -5
-235 -1 -234 -1 -234 46 0 12 7 14 33 9 17 -4 113 -15 212 -26z"/>
<path d="M2949 2824 c-17 -21 0 -49 32 -49 27 0 37 28 19 50 -16 19 -34 19
-51 -1z"/>
<path d="M3369 2824 c-17 -21 0 -49 32 -49 27 0 37 28 19 50 -16 19 -34 19
-51 -1z"/>
<path d="M1895 2297 c-143 -97 -375 -315 -375 -353 0 -36 27 -44 106 -32 78
11 359 67 383 75 9 3 0 -12 -21 -33 -55 -59 -118 -163 -118 -195 0 -46 27 -52
106 -25 132 45 229 88 264 114 47 37 91 64 95 60 2 -2 -23 -59 -56 -127 -63
-132 -70 -164 -40 -181 16 -8 28 -3 64 29 53 45 240 143 340 177 38 13 113 48
166 77 131 72 290 142 481 214 69 25 92 45 83 70 -13 32 -50 34 -130 4 -164
-60 -332 -134 -467 -205 -78 -40 -166 -81 -196 -91 -30 -10 -85 -33 -122 -51
-37 -19 -70 -34 -73 -34 -3 0 2 17 11 38 9 20 30 71 47 112 16 41 36 84 43 94
9 13 10 25 3 38 -18 33 -59 21 -141 -40 -43 -31 -104 -75 -135 -97 -62 -43
-193 -100 -193 -83 0 5 18 31 41 56 23 26 53 67 67 92 14 25 32 49 39 53 24
15 35 45 23 67 -14 27 -49 25 -104 -4 -25 -13 -67 -31 -93 -40 -58 -18 -294
-68 -300 -63 -10 10 143 138 244 204 127 84 158 115 142 144 -18 34 -59 20
-184 -64z"/>
</g>
</svg>
